{
  "accessors": [
    {
      "bufferView": 2,
      "componentType": 5126,
      "count": 5301,
      "max": [
        0.8299042582511902,
        0.8272679448127747,
        0.828326404094696
      ],
      "min": [
        -0.8076125383377075,
        -0.8272680044174194,
        -0.8299042582511902
      ],
      "type": "VEC3"
    },
    {
      "bufferView": 2,
      "byteOffset": 63612,
      "componentType": 5126,
      "count": 5301,
      "max": [
        1.0,
        0.9994025230407715,
        0.9998701810836792
      ],
      "min": [
        -0.9993089437484741,
        -0.9994025230407715,
        -1.0
      ],
      "type": "VEC3"
    },
    {
      "bufferView": 3,
      "componentType": 5126,
      "count": 5301,
      "max": [
        0.9970784783363342,
        0.9999999403953552,
        0.9999954700469971,
        1.0
      ],
      "min": [
        -0.9997486472129822,
        -0.8304635882377625,
        -0.4996163547039032,
        1.0
      ],
      "type": "VEC4"
    },
    {
      "bufferView": 1,
      "componentType": 5126,
      "count": 5301,
      "max": [
        0.6513913869857788,
        1.0
      ],
      "min": [
        0.0,
        0.0
      ],
      "type": "VEC2"
    },
    {
      "bufferView": 0,
      "componentType": 5125,
      "count": 29376,
      "type": "SCALAR"
    },
    {
      "bufferView": 2,
      "byteOffset": 127224,
      "componentType": 5126,
      "count": 3107,
      "max": [
        0.013936765491962433,
        0.8284381628036499,
        0.828326404094696
      ],
      "min": [
        -0.8302401900291443,
        -0.8284381628036499,
        -0.18062089383602142
      ],
      "type": "VEC3"
    },
    {
      "bufferView": 2,
      "byteOffset": 164508,
      "componentType": 5126,
      "count": 3107,
      "max": [
        0.4781767725944519,
        0.9995979070663452,
        1.0
      ],
      "min": [
        -0.9999991655349731,
        -0.9995979070663452,
        -0.6189797520637512
      ],
      "type": "VEC3"
    },
    {
      "bufferView": 3,
      "byteOffset": 84816,
      "componentType": 5126,
      "count": 3107,
      "max": [
        0.9999974966049194,
        0.6217817068099976,
        0.695615291595459,
        1.0
      ],
      "min": [
        -0.7518486976623535,
        -0.6655188202857971,
        -0.9999616146087646,
        1.0
      ],
      "type": "VEC4"
    },
    {
      "bufferView": 1,
      "byteOffset": 42408,
      "componentType": 5126,
      "count": 3107,
      "max": [
        0.99030601978302,
        0.9044909477233887
      ],
      "min": [
        0.6049202680587769,
        0.0
      ],
      "type": "VEC2"
    },
    {
      "bufferView": 0,
      "byteOffset": 117504,
      "componentType": 5125,
      "count": 17280,
      "type": "SCALAR"
    }
  ],
  "asset": {
    "extras": {
      "author": "Bunty Somaiya (https://sketchfab.com/BuntySomaiya)",
      "license": "CC-BY-4.0 (http://creativecommons.org/licenses/by/4.0/)",
      "source": "https://sketchfab.com/3d-models/reflective-ball-4085407d6da54335b325d76e20ec8c48",
      "title": "Reflective ball"
    },
    "generator": "Sketchfab-12.68.0",
    "version": "2.0"
  },
  "bufferViews": [
    {
      "buffer": 0,
      "byteLength": 186624,
      "name": "floatBufferViews",
      "target": 34963
    },
    {
      "buffer": 0,
      "byteLength": 67264,
      "byteOffset": 186624,
      "byteStride": 8,
      "name": "floatBufferViews",
      "target": 34962
    },
    {
      "buffer": 0,
      "byteLength": 201792,
      "byteOffset": 253888,
      "byteStride": 12,
      "name": "floatBufferViews",
      "target": 34962
    },
    {
      "buffer": 0,
      "byteLength": 134528,
      "byteOffset": 455680,
      "byteStride": 16,
      "name": "floatBufferViews",
      "target": 34962
    }
  ],
  "buffers": [
    {
      "byteLength": 590208,
      "uri": "scene.bin"
    }
  ],
  "images": [
    {
      "uri": "textures/matl_baseColor.png"
    },
    {
      "uri": "textures/matl_metallicRoughness.png"
    },
    {
      "uri": "textures/matl_normal.png"
    },
    {
      "uri": "textures/Glass_baseColor.png"
    },
    {
      "uri": "textures/Glass_metallicRoughness.png"
    },
    {
      "uri": "textures/Glass_emissive.png"
    },
    {
      "uri": "textures/Glass_normal.png"
    }
  ],
  "materials": [
    {
      "doubleSided": true,
      "name": "matl",
      "normalTexture": {
        "index": 2
      },
      "pbrMetallicRoughness": {
        "baseColorTexture": {
          "index": 0
        },
        "metallicRoughnessTexture": {
          "index": 1
        }
      }
    },
    {
      "doubleSided": true,
      "emissiveFactor": [
        1.0,
        1.0,
        1.0
      ],
      "emissiveTexture": {
        "index": 5
      },
      "name": "Glass",
      "normalTexture": {
        "index": 6
      },
      "pbrMetallicRoughness": {
        "baseColorTexture": {
          "index": 3
        },
        "metallicRoughnessTexture": {
          "index": 4
        }
      }
    }
  ],
  "meshes": [
    {
      "name": "Cube_matl_0",
      "primitives": [
        {
          "attributes": {
            "NORMAL": 1,
            "POSITION": 0,
            "TANGENT": 2,
            "TEXCOORD_0": 3
          },
          "indices": 4,
          "material": 0,
          "mode": 4
        }
      ]
    },
    {
      "name": "Cube.002_Glass_0",
      "primitives": [
        {
          "attributes": {
            "NORMAL": 6,
            "POSITION": 5,
            "TANGENT": 7,
            "TEXCOORD_0": 8
          },
          "indices": 9,
          "material": 1,
          "mode": 4
        }
      ]
    }
  ],
  "nodes": [
    {
      "children": [
        1
      ],
      "matrix": [
        1.0,
        0.0,
        0.0,
        0.0,
        0.0,
        2.220446049250313e-16,
        -1.0,
        0.0,
        0.0,
        1.0,
        2.220446049250313e-16,
        0.0,
        0.0,
        0.0,
        0.0,
        1.0
      ],
      "name": "Sketchfab_model"
    },
    {
      "children": [
        2
      ],
      "matrix": [
        1.0,
        0.0,
        0.0,
        0.0,
        0.0,
        0.0,
        1.0,
        0.0,
        0.0,
        -1.0,
        0.0,
        0.0,
        0.0,
        0.0,
        0.0,
        1.0
      ],
      "name": "e0ae182d1897481eab7569e185293783.fbx"
    },
    {
      "children": [
        3,
        5
      ],
      "name": "RootNode"
    },
    {
      "children": [
        4
      ],
      "matrix": [
        100.0,
        0.0,
        0.0,
        0.0,
        0.0,
        -1.629206793918314e-05,
        -99.99999999999868,
        0.0,
        0.0,
        99.99999999999868,
        -1.629206793918314e-05,
        0.0,
        0.0,
        0.0,
        0.0,
        1.0
      ],
      "name": "Cube"
    },
    {
      "mesh": 0,
      "name": "Cube_matl_0"
    },
    {
      "children": [
        6
      ],
      "matrix": [
        100.0,
        0.0,
        0.0,
        0.0,
        0.0,
        -1.629206793918314e-05,
        -99.99999999999868,
        0.0,
        0.0,
        99.99999999999868,
        -1.629206793918314e-05,
        0.0,
        0.0,
        0.0,
        0.0,
        1.0
      ],
      "name": "Cube.002"
    },
    {
      "mesh": 1,
      "name": "Cube.002_Glass_0"
    }
  ],
  "samplers": [
    {
      "magFilter": 9729,
      "minFilter": 9987,
      "wrapS": 10497,
      "wrapT": 10497
    }
  ],
  "scene": 0,
  "scenes": [
    {
      "name": "Sketchfab_Scene",
      "nodes": [
        0
      ]
    }
  ],
  "textures": [
    {
      "sampler": 0,
      "source": 0
    },
    {
      "sampler": 0,
      "source": 1
    },
    {
      "sampler": 0,
      "source": 2
    },
    {
      "sampler": 0,
      "source": 3
    },
    {
      "sampler": 0,
      "source": 4
    },
    {
      "sampler": 0,
      "source": 5
    },
    {
      "sampler": 0,
      "source": 6
    }
  ]
}
